<svg width="56" height="66" viewBox="0 0 56 66" fill="none" xmlns="http://www.w3.org/2000/svg">
<g filter="url(#filter0_dd_390_6026)">
<g clip-path="url(#clip0_390_6026)">
<path d="M28 4C20.6333 4 14.6666 9.96667 14.6666 17.3333C14.6666 26.5667 28 40.6667 28 40.6667C28 40.6667 41.3333 26.5667 41.3333 17.3333C41.3333 9.96667 35.3666 4 28 4ZM28 22.3333C25.2333 22.3333 23 20.1 23 17.3333C23 14.5667 25.2333 12.3333 28 12.3333C30.7666 12.3333 33 14.5667 33 17.3333C33 20.1 30.7666 22.3333 28 22.3333Z" fill="#2D2926"/>
</g>
</g>
<defs>
<filter id="filter0_dd_390_6026" x="0" y="0" width="56" height="66" filterUnits="userSpaceOnUse" color-interpolation-filters="sRGB">
<feFlood flood-opacity="0" result="BackgroundImageFix"/>
<feColorMatrix in="SourceAlpha" type="matrix" values="0 0 0 0 0 0 0 0 0 0 0 0 0 0 0 0 0 0 127 0" result="hardAlpha"/>
<feOffset dy="10"/>
<feGaussianBlur stdDeviation="4"/>
<feComposite in2="hardAlpha" operator="out"/>
<feColorMatrix type="matrix" values="0 0 0 0 0 0 0 0 0 0 0 0 0 0 0 0 0 0 0.04 0"/>
<feBlend mode="normal" in2="BackgroundImageFix" result="effect1_dropShadow_390_6026"/>
<feColorMatrix in="SourceAlpha" type="matrix" values="0 0 0 0 0 0 0 0 0 0 0 0 0 0 0 0 0 0 127 0" result="hardAlpha"/>
<feOffset dy="4"/>
<feGaussianBlur stdDeviation="1.5"/>
<feComposite in2="hardAlpha" operator="out"/>
<feColorMatrix type="matrix" values="0 0 0 0 0 0 0 0 0 0 0 0 0 0 0 0 0 0 0.1 0"/>
<feBlend mode="normal" in2="effect1_dropShadow_390_6026" result="effect2_dropShadow_390_6026"/>
<feBlend mode="normal" in="SourceGraphic" in2="effect2_dropShadow_390_6026" result="shape"/>
</filter>
<clipPath id="clip0_390_6026">
<rect width="40" height="48" fill="white" transform="translate(8)"/>
</clipPath>
</defs>
</svg>
